<svg version="1.1" id="Layer_1" xmlns="http://www.w3.org/2000/svg" xmlns:xlink="http://www.w3.org/1999/xlink" x="0px" y="0px"
	 width="100%" viewBox="0 0 512 512" enable-background="new 0 0 512 512" xml:space="preserve">
<path fill="#000000" opacity="1.000000" stroke="none" 
	d="
M84.000000,513.000000 
	C56.343498,513.000000 28.686996,513.000000 1.015247,513.000000 
	C1.015247,342.406189 1.015247,171.812408 1.015247,1.109302 
	C171.666626,1.109302 342.333313,1.109302 513.000000,1.109302 
	C513.000000,28.416294 513.000000,55.739491 512.650513,83.616196 
	C507.393402,92.718483 498.580780,90.228325 491.000000,91.351868 
	C491.000000,93.469818 491.000000,95.289314 491.000000,97.108810 
	C491.000000,201.713882 490.964142,306.319000 491.106018,410.923859 
	C491.113098,416.144623 489.356720,420.090118 485.920227,423.536011 
	C465.101959,444.411102 444.262604,465.265320 423.368744,486.064728 
	C420.069397,489.349152 416.264008,491.113464 411.202850,491.106628 
	C306.264862,490.965088 201.326599,491.000000 96.388390,491.000000 
	C94.630440,491.000000 92.872490,491.000000 90.982185,491.000000 
	C91.106865,499.548553 91.616882,507.629669 84.000000,513.000000 
M385.154053,380.316071 
	C387.194794,379.877380 389.233215,379.070953 391.276642,379.058136 
	C407.775269,378.954468 424.274780,379.000000 440.774048,379.000000 
	C449.726135,379.000000 458.678192,379.000000 467.791473,379.000000 
	C467.791473,282.847198 467.791473,187.111801 467.791473,91.209801 
	C401.513184,91.209801 335.443481,91.209801 269.000000,91.209801 
	C269.000000,93.027847 269.000000,94.658089 269.000000,96.288322 
	C269.000000,111.787628 269.039978,127.287102 268.976074,142.786148 
	C268.956451,147.544815 268.249176,152.255264 263.729126,154.998337 
	C254.543945,160.572464 245.135071,154.827530 245.029327,143.549393 
	C244.904343,130.217834 245.000000,116.884193 245.000000,103.551453 
	C245.000000,99.444359 245.000000,95.337257 245.000000,91.272560 
	C193.388016,91.272560 142.317673,91.272560 91.274544,91.272560 
	C91.274544,142.615952 91.274544,193.686295 91.274544,245.000000 
	C93.188438,245.000000 94.829941,245.000000 96.471436,245.000000 
	C112.137398,245.000000 127.805481,244.845062 143.468521,245.059052 
	C152.631897,245.184235 157.192612,250.076813 157.045242,257.302277 
	C156.908493,264.005524 152.612518,268.831329 143.365875,268.945282 
	C127.369019,269.142487 111.367973,268.994080 95.368706,269.010223 
	C93.943909,269.011688 92.519257,269.157074 91.336594,269.222290 
	C91.336594,335.741180 91.336594,401.811371 91.336594,467.663544 
	C187.409180,467.663544 283.144928,467.663544 379.000000,467.663544 
	C379.000000,442.003723 378.992584,416.680145 379.006927,391.356598 
	C379.009460,386.902039 380.078918,382.969666 385.154053,380.316071 
M172.500000,24.000000 
	C145.404877,24.000000 118.309746,24.000000 91.290970,24.000000 
	C91.290970,38.648903 91.290970,52.721176 91.290970,66.712646 
	C224.315338,66.712646 357.048523,66.712646 489.709076,66.712646 
	C489.709076,52.351208 489.709076,38.278938 489.709076,24.000000 
	C384.112183,24.000000 278.806091,24.000000 172.500000,24.000000 
M67.000000,217.500000 
	C67.000000,175.406006 67.000000,133.311996 67.000000,91.290031 
	C52.352955,91.290031 38.280735,91.290031 24.286442,91.290031 
	C24.286442,224.313477 24.286442,357.046692 24.286442,489.709991 
	C38.646938,489.709991 52.719185,489.709991 67.000000,489.709991 
	C67.000000,399.113434 67.000000,308.806702 67.000000,217.500000 
M467.262665,408.169189 
	C467.566589,406.205719 467.870514,404.242249 468.176178,402.267365 
	C445.724365,402.267365 423.990295,402.267365 402.203857,402.267365 
	C402.203857,424.291473 402.203857,446.047638 402.203857,469.423920 
	C405.556061,467.615601 408.553314,466.752228 410.505890,464.828522 
	C429.362579,446.250336 448.043701,427.493927 467.262665,408.169189 
M56.476910,24.000000 
	C45.715946,24.000000 34.954983,24.000000 24.295380,24.000000 
	C24.295380,38.661354 24.295380,52.732010 24.295380,66.703712 
	C38.663265,66.703712 52.733902,66.703712 66.702774,66.703712 
	C66.702774,52.334991 66.702774,38.264320 66.702774,24.000000 
	C63.428127,24.000000 60.447243,24.000000 56.476910,24.000000 
z"/>
<path fill="#FFFFFF" opacity="1.000000" stroke="none" 
	d="
M84.468658,513.000000 
	C91.616882,507.629669 91.106865,499.548553 90.982185,491.000000 
	C92.872490,491.000000 94.630440,491.000000 96.388390,491.000000 
	C201.326599,491.000000 306.264862,490.965088 411.202850,491.106628 
	C416.264008,491.113464 420.069397,489.349152 423.368744,486.064728 
	C444.262604,465.265320 465.101959,444.411102 485.920227,423.536011 
	C489.356720,420.090118 491.113098,416.144623 491.106018,410.923859 
	C490.964142,306.319000 491.000000,201.713882 491.000000,97.108810 
	C491.000000,95.289314 491.000000,93.469818 491.000000,91.351868 
	C498.580780,90.228325 507.393402,92.718483 512.650513,84.084854 
	C513.000000,226.927063 513.000000,369.854126 513.000000,513.000000 
	C370.312500,513.000000 227.624908,513.000000 84.468658,513.000000 
z"/>
<path fill="#FFFFFF" opacity="1.000000" stroke="none" 
	d="
M384.873535,380.609406 
	C380.078918,382.969666 379.009460,386.902039 379.006927,391.356598 
	C378.992584,416.680145 379.000000,442.003723 379.000000,467.663544 
	C283.144928,467.663544 187.409180,467.663544 91.336594,467.663544 
	C91.336594,401.811371 91.336594,335.741180 91.336594,269.222290 
	C92.519257,269.157074 93.943909,269.011688 95.368706,269.010223 
	C111.367973,268.994080 127.369019,269.142487 143.365875,268.945282 
	C152.612518,268.831329 156.908493,264.005524 157.045242,257.302277 
	C157.192612,250.076813 152.631897,245.184235 143.468521,245.059052 
	C127.805481,244.845062 112.137398,245.000000 96.471436,245.000000 
	C94.829941,245.000000 93.188438,245.000000 91.274544,245.000000 
	C91.274544,193.686295 91.274544,142.615952 91.274544,91.272560 
	C142.317673,91.272560 193.388016,91.272560 245.000000,91.272560 
	C245.000000,95.337257 245.000000,99.444359 245.000000,103.551453 
	C245.000000,116.884193 244.904343,130.217834 245.029327,143.549393 
	C245.135071,154.827530 254.543945,160.572464 263.729126,154.998337 
	C268.249176,152.255264 268.956451,147.544815 268.976074,142.786148 
	C269.039978,127.287102 269.000000,111.787628 269.000000,96.288322 
	C269.000000,94.658089 269.000000,93.027847 269.000000,91.209801 
	C335.443481,91.209801 401.513184,91.209801 467.791473,91.209801 
	C467.791473,187.111801 467.791473,282.847198 467.791473,379.000000 
	C458.678192,379.000000 449.726135,379.000000 440.774048,379.000000 
	C424.274780,379.000000 407.775269,378.954468 391.276642,379.058136 
	C389.233215,379.070953 387.194794,379.877380 384.873535,380.609406 
M269.000000,245.483093 
	C268.999969,235.332626 269.200134,225.176651 268.920074,215.033920 
	C268.767639,209.513733 267.568420,204.224213 261.408020,201.826965 
	C256.831482,200.046066 252.925446,200.779968 249.212860,203.946991 
	C245.358490,207.234985 245.171707,211.754318 245.069321,216.129257 
	C244.845322,225.700012 245.000000,235.279602 245.000000,245.000031 
	C234.727554,245.000031 225.088806,244.905289 215.452744,245.026123 
	C205.390152,245.152298 200.725037,250.544342 200.953583,257.378418 
	C201.157379,263.472473 205.122086,268.719971 214.710083,268.926483 
	C228.182312,269.216644 241.667221,269.132111 255.143234,268.950378 
	C263.235138,268.841278 266.301086,266.363037 268.178436,258.214172 
	C269.048309,254.438309 268.762085,250.396103 269.000000,245.483093 
z"/>
<path fill="#FFFFFF" opacity="1.000000" stroke="none" 
	d="
M173.000000,24.000000 
	C278.806091,24.000000 384.112183,24.000000 489.709076,24.000000 
	C489.709076,38.278938 489.709076,52.351208 489.709076,66.712646 
	C357.048523,66.712646 224.315338,66.712646 91.290970,66.712646 
	C91.290970,52.721176 91.290970,38.648903 91.290970,24.000000 
	C118.309746,24.000000 145.404877,24.000000 173.000000,24.000000 
z"/>
<path fill="#FFFFFF" opacity="1.000000" stroke="none" 
	d="
M67.000000,218.000000 
	C67.000000,308.806702 67.000000,399.113434 67.000000,489.709991 
	C52.719185,489.709991 38.646938,489.709991 24.286442,489.709991 
	C24.286442,357.046692 24.286442,224.313477 24.286442,91.290031 
	C38.280735,91.290031 52.352955,91.290031 67.000000,91.290031 
	C67.000000,133.311996 67.000000,175.406006 67.000000,218.000000 
z"/>
<path fill="#FFFFFF" opacity="1.000000" stroke="none" 
	d="
M467.018860,408.478821 
	C448.043701,427.493927 429.362579,446.250336 410.505890,464.828522 
	C408.553314,466.752228 405.556061,467.615601 402.203857,469.423920 
	C402.203857,446.047638 402.203857,424.291473 402.203857,402.267365 
	C423.990295,402.267365 445.724365,402.267365 468.176178,402.267365 
	C467.870514,404.242249 467.566589,406.205719 467.018860,408.478821 
z"/>
<path fill="#FFFFFF" opacity="1.000000" stroke="none" 
	d="
M56.971634,24.000000 
	C60.447243,24.000000 63.428127,24.000000 66.702774,24.000000 
	C66.702774,38.264320 66.702774,52.334991 66.702774,66.703712 
	C52.733902,66.703712 38.663265,66.703712 24.295380,66.703712 
	C24.295380,52.732010 24.295380,38.661354 24.295380,24.000000 
	C34.954983,24.000000 45.715946,24.000000 56.971634,24.000000 
z"/>
<path fill="#000000" opacity="1.000000" stroke="none" 
	d="
M269.000000,245.978867 
	C268.762085,250.396103 269.048309,254.438309 268.178436,258.214172 
	C266.301086,266.363037 263.235138,268.841278 255.143234,268.950378 
	C241.667221,269.132111 228.182312,269.216644 214.710083,268.926483 
	C205.122086,268.719971 201.157379,263.472473 200.953583,257.378418 
	C200.725037,250.544342 205.390152,245.152298 215.452744,245.026123 
	C225.088806,244.905289 234.727554,245.000031 245.000000,245.000031 
	C245.000000,235.279602 244.845322,225.700012 245.069321,216.129257 
	C245.171707,211.754318 245.358490,207.234985 249.212860,203.946991 
	C252.925446,200.779968 256.831482,200.046066 261.408020,201.826965 
	C267.568420,204.224213 268.767639,209.513733 268.920074,215.033920 
	C269.200134,225.176651 268.999969,235.332626 269.000000,245.978867 
z"/>
</svg>