<?xml version="1.0" standalone="no"?>
<!DOCTYPE svg PUBLIC "-//W3C//DTD SVG 20010904//EN"
 "http://www.w3.org/TR/2001/REC-SVG-20010904/DTD/svg10.dtd">
<svg version="1.0" xmlns="http://www.w3.org/2000/svg"
 width="512.000000pt" height="512.000000pt" viewBox="0 0 512.000000 512.000000"
 preserveAspectRatio="xMidYMid meet">

<g transform="translate(0.000000,512.000000) scale(0.100000,-0.100000)"
fill="#000000" stroke="none">
<path d="M807 4309 c-92 -22 -173 -88 -216 -179 l-26 -55 -3 -717 -3 -716 -42
-7 c-106 -17 -199 -87 -246 -185 l-26 -55 -3 -357 -3 -358 -44 0 c-55 0 -90
-15 -104 -47 -15 -32 -15 -354 0 -386 14 -32 49 -47 104 -47 l45 0 0 -165 c0
-175 6 -206 47 -224 32 -15 274 -14 307 0 33 15 39 35 77 227 l32 162 1857 0
1857 0 32 -162 c38 -192 44 -212 77 -227 33 -14 275 -15 307 0 41 18 47 49 47
224 l0 165 45 0 c55 0 90 15 104 47 15 32 15 354 0 386 -14 32 -49 47 -104 47
l-44 0 -3 358 -3 357 -26 55 c-47 98 -140 168 -246 185 l-42 7 -3 716 -3 717
-26 55 c-33 70 -89 126 -159 159 l-55 26 -1735 2 c-991 0 -1751 -3 -1773 -8z
m3514 -172 c18 -12 44 -38 56 -56 l23 -34 0 -703 0 -704 -79 0 -79 0 -4 198
c-3 188 -4 199 -29 252 -33 70 -89 126 -159 159 l-55 26 -555 0 -555 0 -55
-26 c-70 -33 -126 -89 -159 -159 -25 -53 -26 -64 -29 -252 l-4 -198 -78 0 -78
0 -4 198 c-3 188 -4 199 -29 252 -33 70 -89 126 -159 159 l-55 26 -555 0 -555
0 -55 -26 c-70 -33 -126 -89 -159 -159 -25 -53 -26 -64 -29 -252 l-4 -198 -79
0 -79 0 0 704 0 703 23 34 c12 18 38 44 56 56 l34 23 1727 0 1727 0 34 -23z
m-2080 -1040 c18 -12 44 -38 56 -56 22 -32 23 -43 23 -217 l0 -184 -640 0
-640 0 0 184 c0 174 1 185 23 217 12 18 38 44 56 56 l34 23 527 0 527 0 34
-23z m1760 0 c18 -12 44 -38 56 -56 22 -32 23 -43 23 -217 l0 -184 -640 0
-640 0 0 184 c0 174 1 185 23 217 12 18 38 44 56 56 l34 23 527 0 527 0 34
-23z m629 -639 c33 -17 51 -35 68 -68 21 -43 22 -52 22 -377 l0 -333 -2160 0
-2160 0 0 333 c0 325 1 334 23 377 16 33 34 51 67 68 l44 22 2026 0 2026 0 44
-22z m250 -1018 l0 -80 -2320 0 -2320 0 0 80 0 80 2320 0 2320 0 0 -80z
m-4340 -247 c-1 -5 -11 -57 -23 -118 l-23 -110 -47 -3 -47 -3 0 120 0 121 70
0 c39 0 70 -3 70 -7z m4180 -114 l0 -120 -47 3 -47 3 -23 110 c-12 61 -22 113
-23 118 0 4 32 7 70 7 l70 0 0 -121z"/>
</g>
</svg>
