<svg version="1.1" id="Layer_1" xmlns="http://www.w3.org/2000/svg" xmlns:xlink="http://www.w3.org/1999/xlink" x="0px" y="0px"
	 width="100%" viewBox="0 0 512 512" enable-background="new 0 0 512 512" xml:space="preserve">
<path fill="#FFFFFF" opacity="1.000000" stroke="none" 
	d="
M1.000000,271.000000 
	C1.000000,181.034943 1.000000,91.069878 1.000000,1.052408 
	C171.565460,1.052408 342.130920,1.052408 513.000000,1.052408 
	C513.000000,111.022461 513.000000,221.045197 512.707764,331.363708 
	C511.616211,330.091400 510.816925,328.523346 509.981842,326.607025 
	C502.749969,312.198761 483.095825,310.941040 472.487793,318.569946 
	C458.140015,328.888336 443.161530,338.333618 428.394745,348.064087 
	C417.655640,355.140533 406.821198,362.072266 396.011353,368.593201 
	C395.662415,332.027496 395.265137,295.937500 395.026978,259.846466 
	C394.897339,240.199387 395.037750,220.550507 395.366028,201.031067 
	C407.210388,212.024597 418.644165,222.999374 430.316040,233.714783 
	C437.797211,240.582886 449.767303,240.896851 456.753082,234.694168 
	C463.735443,228.494446 467.080414,217.871033 459.961060,207.645828 
	C449.203339,197.379440 438.584595,187.416824 427.955841,177.464905 
	C417.690338,167.853119 407.401550,158.266144 397.146179,148.643585 
	C380.610260,133.127884 364.106659,117.577698 347.563324,102.069862 
	C337.789001,92.907341 327.917480,83.848183 318.174103,74.653069 
	C304.678162,61.916599 291.278046,49.078659 277.800507,36.322624 
	C274.084290,32.805336 270.331848,29.314793 266.429321,26.008743 
	C261.316498,21.677345 248.200699,21.785496 243.283798,26.261808 
	C233.993057,34.720051 224.771255,43.256901 215.647079,51.894459 
	C206.128647,60.905231 196.805893,70.122475 187.307358,79.154579 
	C181.324921,84.843277 175.176727,90.357674 169.058899,95.484619 
	C169.008881,86.718567 168.959473,78.417839 169.017288,70.117874 
	C169.041748,66.606499 167.489456,64.944153 163.949554,64.988853 
	C155.985184,65.089424 148.019897,65.115433 139.587646,65.101456 
	C133.971451,65.020813 128.822571,65.003639 123.673691,65.001869 
	C116.746506,64.999489 116.010735,65.714462 116.004097,72.626259 
	C115.980629,97.042297 115.973175,121.458359 115.654335,146.018707 
	C107.818932,153.355789 100.275436,160.534576 92.762276,167.744965 
	C83.810600,176.335876 74.870010,184.938461 65.953644,193.565994 
	C60.661140,198.687042 55.424561,203.865891 49.995144,209.357635 
	C44.053085,218.685379 47.426884,230.500107 53.698357,235.073456 
	C62.319668,241.360367 72.216446,241.028824 80.059021,234.290939 
	C86.836639,228.468002 93.062355,222.005981 99.599098,215.898239 
	C104.664093,211.165649 109.832626,206.543884 114.969193,202.349289 
	C114.987038,232.522141 114.990829,262.218536 114.590660,291.903381 
	C107.005806,290.927887 99.849609,289.501648 92.637794,289.116394 
	C83.503365,288.628418 74.323715,288.986877 65.090775,288.518005 
	C65.010872,283.895233 64.907471,279.732239 65.016678,275.574860 
	C65.244911,266.886658 56.873947,257.398315 46.965199,257.090240 
	C37.659069,256.800873 28.334272,257.111938 18.630674,257.078308 
	C9.742826,258.274933 4.614727,263.705627 1.000000,271.000000 
z"/>
<path fill="#FFFFFF" opacity="1.000000" stroke="none" 
	d="
M513.000000,346.000000 
	C513.000000,401.633270 513.000000,457.266571 513.000000,512.949951 
	C342.333344,512.949951 171.666672,512.949951 1.000000,512.949951 
	C1.000000,496.250793 1.000000,479.594055 1.338242,462.582275 
	C4.514669,469.740601 9.740968,474.431671 18.168339,475.896545 
	C27.385523,475.969086 36.187813,475.927856 44.989307,475.993500 
	C56.851383,476.081909 65.887939,465.875580 65.061722,455.962341 
	C64.732513,452.012238 65.107315,448.003479 65.479103,444.171661 
	C72.257233,446.853516 78.698624,449.435608 85.181923,451.907837 
	C111.288414,461.862885 137.397614,471.811066 163.526474,481.707245 
	C178.683517,487.447876 193.599945,493.668945 210.632492,490.133026 
	C223.361786,487.490479 236.379547,486.236877 249.269440,484.368835 
	C261.672577,482.571381 274.073853,480.760773 286.480774,478.989685 
	C299.215637,477.171722 311.959412,475.415985 324.693665,473.593658 
	C337.587372,471.748535 350.612793,470.500122 363.318237,467.769928 
	C372.723724,465.748840 382.703613,463.337189 390.642548,458.291107 
	C401.846954,451.169495 411.561218,441.634888 421.627228,432.806580 
	C437.444946,418.933716 453.035217,404.801270 468.701019,390.755585 
	C476.725128,383.561249 484.699646,376.311615 492.704773,369.096069 
	C500.369843,362.187042 509.241486,356.340851 513.000000,346.000000 
z"/>
<path fill="#F4C892" opacity="1.000000" stroke="none" 
	d="
M513.000000,345.535339 
	C509.241486,356.340851 500.369843,362.187042 492.704773,369.096069 
	C484.699646,376.311615 476.725128,383.561249 468.701019,390.755585 
	C453.035217,404.801270 437.444946,418.933716 421.627228,432.806580 
	C411.561218,441.634888 401.846954,451.169495 390.642548,458.291107 
	C382.703613,463.337189 372.723724,465.748840 363.318237,467.769928 
	C350.612793,470.500122 337.587372,471.748535 324.693665,473.593658 
	C311.959412,475.415985 299.215637,477.171722 286.480774,478.989685 
	C274.073853,480.760773 261.672577,482.571381 249.269440,484.368835 
	C236.379547,486.236877 223.361786,487.490479 210.632492,490.133026 
	C193.599945,493.668945 178.683517,487.447876 163.526474,481.707245 
	C137.397614,471.811066 111.288414,461.862885 85.181923,451.907837 
	C78.698624,449.435608 72.257233,446.853516 65.410767,443.707092 
	C65.072021,427.056458 65.119102,411.020691 65.540092,394.997131 
	C67.781776,395.674286 69.661911,396.306549 71.515503,397.008881 
	C105.357979,409.831818 139.138382,422.822418 173.080627,435.375366 
	C181.085739,438.335907 189.543533,441.054535 197.955780,441.673584 
	C207.599762,442.383270 217.426575,440.653961 227.171005,439.943726 
	C245.000809,438.644226 262.826904,437.293579 280.657593,436.006378 
	C290.900330,435.266937 301.153748,434.672424 311.394043,433.902435 
	C328.060944,432.649200 344.706268,431.051605 361.388641,430.079437 
	C375.109222,429.279846 388.442993,426.110565 399.517670,418.536316 
	C414.228546,408.475159 427.584625,396.416138 441.394043,385.058899 
	C453.040894,375.480194 464.533997,365.713440 476.039825,355.964569 
	C487.401917,346.337463 498.694550,336.628418 510.017639,326.955322 
	C510.816925,328.523346 511.616211,330.091400 512.707764,331.829712 
	C513.000000,336.356903 513.000000,340.713806 513.000000,345.535339 
z"/>
<path fill="#2D5871" opacity="1.000000" stroke="none" 
	d="
M17.753090,475.830383 
	C9.740968,474.431671 4.514669,469.740601 1.338242,462.113586 
	C1.000000,398.645782 1.000000,335.291534 1.000000,271.468658 
	C4.614727,263.705627 9.742826,258.274933 18.692047,257.412506 
	C27.019625,262.011780 32.950516,267.739502 32.962223,277.329895 
	C33.034828,336.804413 33.043106,396.279114 32.946068,455.753540 
	C32.933018,463.752014 28.932573,469.596954 21.692636,473.183594 
	C20.287285,473.879822 19.061634,474.938751 17.753090,475.830383 
z"/>
<path fill="#FED9A8" opacity="1.000000" stroke="none" 
	d="
M509.981873,326.607056 
	C498.694550,336.628418 487.401917,346.337463 476.039825,355.964569 
	C464.533997,365.713440 453.040894,375.480194 441.394043,385.058899 
	C427.584625,396.416138 414.228546,408.475159 399.517670,418.536316 
	C388.442993,426.110565 375.109222,429.279846 361.388641,430.079437 
	C344.706268,431.051605 328.060944,432.649200 311.394043,433.902435 
	C301.153748,434.672424 290.900330,435.266937 280.657593,436.006378 
	C262.826904,437.293579 245.000809,438.644226 227.171005,439.943726 
	C217.426575,440.653961 207.599762,442.383270 197.955780,441.673584 
	C189.543533,441.054535 181.085739,438.335907 173.080627,435.375366 
	C139.138382,422.822418 105.357979,409.831818 71.515503,397.008881 
	C69.661911,396.306549 67.781776,395.674286 65.469078,394.534180 
	C65.070625,359.032776 65.117096,324.006531 65.163559,288.980316 
	C74.323715,288.986877 83.503365,288.628418 92.637794,289.116394 
	C99.849609,289.501648 107.005806,290.927887 114.934525,292.076538 
	C120.635101,293.615845 125.837898,294.398163 130.493744,296.432312 
	C144.483627,302.544525 158.225937,309.220337 172.129883,315.533020 
	C185.307434,321.515930 198.695160,326.899139 213.616104,328.358765 
	C227.616669,330.227753 241.334656,331.889893 255.466064,333.689392 
	C260.971008,334.417908 266.054443,335.093414 271.155884,335.581512 
	C280.021912,336.429779 288.899048,337.162262 298.060669,338.217682 
	C298.986206,338.654175 299.614227,338.870361 300.260254,338.970490 
	C321.350281,342.239075 335.190765,357.748779 336.014526,379.051056 
	C336.280518,385.929321 336.725861,386.376007 343.611053,387.072083 
	C345.412415,387.254211 347.196533,387.606445 349.445190,387.925110 
	C353.503815,388.275269 357.106079,388.578003 360.707794,388.887177 
	C365.225372,389.274933 369.370697,388.875305 373.309662,385.945648 
	C379.654633,381.226532 386.429169,377.088470 392.932648,372.575836 
	C394.177002,371.712433 395.007721,370.252960 396.029297,369.068481 
	C406.821198,362.072266 417.655640,355.140533 428.394745,348.064087 
	C443.161530,338.333618 458.140015,328.888336 472.487793,318.569946 
	C483.095825,310.941040 502.749969,312.198761 509.981873,326.607056 
M195.355576,369.010193 
	C190.924255,368.514343 186.486435,368.069763 182.063156,367.510315 
	C175.840591,366.723328 169.646423,365.583801 163.402054,365.172668 
	C161.440903,365.043518 158.771896,366.297089 157.532211,367.818481 
	C156.682663,368.861053 157.060898,372.544495 158.067978,373.179382 
	C162.764648,376.140411 167.686356,380.097778 172.866379,380.678833 
	C186.996918,382.263916 201.296539,382.367554 215.532532,382.980103 
	C232.094879,383.692749 248.658020,384.405243 265.226013,384.962830 
	C278.997620,385.426331 292.777313,385.645294 306.551971,386.026459 
	C308.524658,386.081055 310.487305,386.607025 312.457489,386.626740 
	C319.897583,386.701111 327.338898,386.656616 334.779755,386.656616 
	C322.690033,384.734436 310.569977,383.411591 298.464874,381.963562 
	C287.151855,380.610291 275.855072,379.121643 264.550507,377.697205 
	C252.103775,376.128845 239.655487,374.572693 227.209518,372.998260 
	C216.891937,371.693054 206.576752,370.369080 195.355576,369.010193 
z"/>
<path fill="#E1EFFB" opacity="1.000000" stroke="none" 
	d="
M213.333542,328.151917 
	C198.695160,326.899139 185.307434,321.515930 172.129883,315.533020 
	C158.225937,309.220337 144.483627,302.544525 130.493744,296.432312 
	C125.837898,294.398163 120.635101,293.615845 115.338486,292.088104 
	C114.990829,262.218536 114.987038,232.522141 115.046661,202.022797 
	C115.959808,200.209976 116.718925,199.104065 117.672539,198.204254 
	C140.396362,176.762192 163.117752,155.317444 185.889786,133.926620 
	C202.229263,118.578171 218.641541,103.307205 235.316223,88.152588 
	C251.643295,103.275520 267.727112,118.192749 283.692291,133.235886 
	C297.973785,146.692551 312.073639,160.342041 326.356354,173.797424 
	C332.636169,179.713470 339.358887,185.169525 345.476715,191.241302 
	C347.342651,193.093170 348.847168,196.298538 348.854614,198.888824 
	C349.035828,261.885651 348.991974,324.883148 348.988586,387.880554 
	C347.196533,387.606445 345.412415,387.254211 343.611053,387.072083 
	C336.725861,386.376007 336.280518,385.929321 336.014526,379.051056 
	C335.190765,357.748779 321.350281,342.239075 300.260254,338.970490 
	C299.614227,338.870361 298.986206,338.654175 298.022827,337.745728 
	C297.661163,323.543884 297.629272,310.088440 297.591156,296.632996 
	C297.534668,276.699005 297.510162,256.764801 297.393677,236.831131 
	C297.356293,230.427750 295.377625,228.088913 289.894745,228.065765 
	C277.605194,228.013885 265.314880,228.133453 252.558990,228.114685 
	C242.439590,228.097092 232.786087,228.148682 223.132599,228.198837 
	C215.012939,228.241013 213.237228,230.027084 213.243347,238.266052 
	C213.265594,268.227997 213.302292,298.189972 213.333542,328.151917 
z"/>
<path fill="#CCDFED" opacity="1.000000" stroke="none" 
	d="
M349.445190,387.925110 
	C348.991974,324.883148 349.035828,261.885651 348.854614,198.888824 
	C348.847168,196.298538 347.342651,193.093170 345.476715,191.241302 
	C339.358887,185.169525 332.636169,179.713470 326.356354,173.797424 
	C312.073639,160.342041 297.973785,146.692551 283.692291,133.235886 
	C267.727112,118.192749 251.643295,103.275520 235.456726,87.850342 
	C241.830963,81.267708 248.359573,75.138229 255.011703,68.892761 
	C256.137573,69.883774 257.015991,70.616089 257.849426,71.396454 
	C298.816406,109.754120 339.796692,148.097595 380.720459,186.501266 
	C385.656769,191.133621 390.285217,196.094070 395.056366,200.902435 
	C395.037750,220.550507 394.897339,240.199387 395.026978,259.846466 
	C395.265137,295.937500 395.662415,332.027496 396.011353,368.593201 
	C395.007721,370.252960 394.177002,371.712433 392.932648,372.575836 
	C386.429169,377.088470 379.654633,381.226532 373.309662,385.945648 
	C369.370697,388.875305 365.225372,389.274933 360.707794,388.887177 
	C357.106079,388.578003 353.503815,388.275269 349.445190,387.925110 
z"/>
<path fill="#FF4C4C" opacity="1.000000" stroke="none" 
	d="
M169.102890,95.950256 
	C175.176727,90.357674 181.324921,84.843277 187.307358,79.154579 
	C196.805893,70.122475 206.128647,60.905231 215.647079,51.894459 
	C224.771255,43.256901 233.993057,34.720051 243.283798,26.261808 
	C248.200699,21.785496 261.316498,21.677345 266.429321,26.008743 
	C270.331848,29.314793 274.084290,32.805336 277.800507,36.322624 
	C291.278046,49.078659 304.678162,61.916599 318.174103,74.653069 
	C327.917480,83.848183 337.789001,92.907341 347.563324,102.069862 
	C364.106659,117.577698 380.610260,133.127884 397.146179,148.643585 
	C407.401550,158.266144 417.690338,167.853119 427.955841,177.464905 
	C438.584595,187.416824 449.203339,197.379440 459.648865,207.791794 
	C449.411377,217.317902 438.880249,217.677185 429.717743,209.201675 
	C420.209900,200.406708 410.726562,191.585052 401.260956,182.744644 
	C385.724182,168.234116 370.203430,153.706421 354.688812,139.172241 
	C338.566620,124.068924 322.423340,108.987831 306.356995,93.825226 
	C292.457428,80.707481 278.683075,67.457031 264.782837,54.339962 
	C261.683411,51.415165 258.289124,48.802814 254.842880,45.887825 
	C238.856033,60.790588 223.068451,75.482674 207.310059,90.205994 
	C196.508102,100.298462 185.727631,110.414085 174.971619,120.555481 
	C156.838669,137.652283 138.718460,154.762634 120.620224,171.896179 
	C107.103699,184.692245 93.696587,197.604645 80.112656,210.328476 
	C71.995323,217.931870 61.589256,217.905029 53.115395,210.659180 
	C52.276779,209.942123 51.153816,209.557602 50.162834,209.018768 
	C55.424561,203.865891 60.661140,198.687042 65.953644,193.565994 
	C74.870010,184.938461 83.810600,176.335876 92.762276,167.744965 
	C100.275436,160.534576 107.818932,153.355789 115.996017,146.024368 
	C125.437561,137.602081 134.232117,129.318436 143.323914,120.885254 
	C152.115067,112.473892 160.608978,104.212074 169.102890,95.950256 
z"/>
<path fill="#F33A3A" opacity="1.000000" stroke="none" 
	d="
M49.995140,209.357635 
	C51.153816,209.557602 52.276779,209.942123 53.115395,210.659180 
	C61.589256,217.905029 71.995323,217.931870 80.112656,210.328476 
	C93.696587,197.604645 107.103699,184.692245 120.620224,171.896179 
	C138.718460,154.762634 156.838669,137.652283 174.971619,120.555481 
	C185.727631,110.414085 196.508102,100.298462 207.310059,90.205994 
	C223.068451,75.482674 238.856033,60.790588 254.842880,45.887825 
	C258.289124,48.802814 261.683411,51.415165 264.782837,54.339962 
	C278.683075,67.457031 292.457428,80.707481 306.356995,93.825226 
	C322.423340,108.987831 338.566620,124.068924 354.688812,139.172241 
	C370.203430,153.706421 385.724182,168.234116 401.260956,182.744644 
	C410.726562,191.585052 420.209900,200.406708 429.717743,209.201675 
	C438.880249,217.677185 449.411377,217.317902 459.783447,208.100250 
	C467.080414,217.871033 463.735443,228.494446 456.753082,234.694168 
	C449.767303,240.896851 437.797211,240.582886 430.316040,233.714783 
	C418.644165,222.999374 407.210388,212.024597 395.366028,201.031082 
	C390.285217,196.094070 385.656769,191.133621 380.720459,186.501266 
	C339.796692,148.097595 298.816406,109.754120 257.849426,71.396454 
	C257.015991,70.616089 256.137573,69.883774 255.011703,68.892761 
	C248.359573,75.138229 241.830963,81.267708 235.161850,87.699432 
	C218.641541,103.307205 202.229263,118.578171 185.889786,133.926620 
	C163.117752,155.317444 140.396362,176.762192 117.672539,198.204254 
	C116.718925,199.104065 115.959808,200.209976 115.032608,201.546356 
	C109.832626,206.543884 104.664093,211.165649 99.599098,215.898239 
	C93.062355,222.005981 86.836639,228.468002 80.059021,234.290939 
	C72.216446,241.028824 62.319668,241.360367 53.698357,235.073456 
	C47.426884,230.500107 44.053085,218.685379 49.995140,209.357635 
z"/>
<path fill="#1D4859" opacity="1.000000" stroke="none" 
	d="
M65.090767,288.518005 
	C65.117096,324.006531 65.070625,359.032776 65.095169,394.521942 
	C65.119102,411.020691 65.072021,427.056458 65.093277,443.556824 
	C65.107315,448.003479 64.732513,452.012238 65.061722,455.962341 
	C65.887939,465.875580 56.851383,476.081909 44.989307,475.993500 
	C36.187813,475.927856 27.385523,475.969086 18.168339,475.896545 
	C19.061634,474.938751 20.287285,473.879822 21.692636,473.183594 
	C28.932573,469.596954 32.933018,463.752014 32.946068,455.753540 
	C33.043106,396.279114 33.034828,336.804413 32.962223,277.329895 
	C32.950516,267.739502 27.019625,262.011780 19.079063,257.493042 
	C28.334272,257.111938 37.659069,256.800873 46.965199,257.090240 
	C56.873947,257.398315 65.244911,266.886658 65.016678,275.574860 
	C64.907471,279.732239 65.010872,283.895233 65.090767,288.518005 
z"/>
<path fill="#FFB025" opacity="1.000000" stroke="none" 
	d="
M143.026672,121.034805 
	C134.232117,129.318436 125.437561,137.602081 116.301331,145.880066 
	C115.973175,121.458359 115.980629,97.042297 116.004097,72.626259 
	C116.010735,65.714462 116.746506,64.999489 123.673691,65.001869 
	C128.822571,65.003639 133.971451,65.020813 139.763885,65.408966 
	C141.269638,68.147865 142.844757,70.498657 142.878967,72.871651 
	C143.110321,88.923416 143.015793,104.979874 143.026672,121.034805 
z"/>
<path fill="#FF901D" opacity="1.000000" stroke="none" 
	d="
M143.323914,120.885262 
	C143.015793,104.979874 143.110321,88.923416 142.878967,72.871651 
	C142.844757,70.498657 141.269638,68.147865 140.231201,65.479294 
	C148.019897,65.115433 155.985184,65.089424 163.949554,64.988853 
	C167.489456,64.944153 169.041748,66.606499 169.017288,70.117874 
	C168.959473,78.417839 169.008881,86.718567 169.058899,95.484619 
	C160.608978,104.212074 152.115067,112.473892 143.323914,120.885262 
z"/>
<path fill="#1E495A" opacity="1.000000" stroke="none" 
	d="
M253.024902,228.183228 
	C265.314880,228.133453 277.605194,228.013885 289.894745,228.065765 
	C295.377625,228.088913 297.356293,230.427750 297.393677,236.831131 
	C297.510162,256.764801 297.534668,276.699005 297.591156,296.632996 
	C297.629272,310.088440 297.661163,323.543884 297.733673,337.471313 
	C288.899048,337.162262 280.021912,336.429779 271.155884,335.581512 
	C266.054443,335.093414 260.971008,334.417908 255.454529,333.251404 
	C255.018112,302.046967 255.081543,271.417450 254.907852,240.789291 
	C254.884003,236.583847 253.681641,232.385086 253.024902,228.183228 
z"/>
<path fill="#2F5A73" opacity="1.000000" stroke="none" 
	d="
M252.558990,228.114685 
	C253.681641,232.385086 254.884003,236.583847 254.907852,240.789291 
	C255.081543,271.417450 255.018112,302.046967 255.041138,333.114014 
	C241.334656,331.889893 227.616669,330.227753 213.616104,328.358765 
	C213.302292,298.189972 213.265594,268.227997 213.243347,238.266052 
	C213.237228,230.027084 215.012939,228.241013 223.132599,228.198837 
	C232.786087,228.148682 242.439590,228.097092 252.558990,228.114685 
z"/>
<path fill="#F4C893" opacity="1.000000" stroke="none" 
	d="
M195.808044,369.031799 
	C206.576752,370.369080 216.891937,371.693054 227.209518,372.998260 
	C239.655487,374.572693 252.103775,376.128845 264.550507,377.697205 
	C275.855072,379.121643 287.151855,380.610291 298.464874,381.963562 
	C310.569977,383.411591 322.690033,384.734436 334.779755,386.656616 
	C327.338898,386.656616 319.897583,386.701111 312.457489,386.626740 
	C310.487305,386.607025 308.524658,386.081055 306.551971,386.026459 
	C292.777313,385.645294 278.997620,385.426331 265.226013,384.962830 
	C248.658020,384.405243 232.094879,383.692749 215.532532,382.980103 
	C201.296539,382.367554 186.996918,382.263916 172.866379,380.678833 
	C167.686356,380.097778 162.764648,376.140411 158.067978,373.179382 
	C157.060898,372.544495 156.682663,368.861053 157.532211,367.818481 
	C158.771896,366.297089 161.440903,365.043518 163.402054,365.172668 
	C169.646423,365.583801 175.840591,366.723328 182.063156,367.510315 
	C186.486435,368.069763 190.924255,368.514343 195.808044,369.031799 
z"/>
</svg>