<svg version="1.1" id="Layer_1" xmlns="http://www.w3.org/2000/svg" xmlns:xlink="http://www.w3.org/1999/xlink" x="0px" y="0px"
	 width="100%" viewBox="0 0 64 64" enable-background="new 0 0 64 64" xml:space="preserve">
<path fill="#FFFFFF" opacity="1.000000" stroke="none" 
	d="
M1.000000,36.000000 
	C1.000000,24.371552 1.000000,12.743102 1.000000,1.057327 
	C22.225109,1.057327 43.450401,1.057327 65.000000,1.057327 
	C65.000000,12.352169 65.000000,23.707426 64.608757,35.409576 
	C63.201836,35.349014 62.186157,34.941559 60.999969,34.465702 
	C60.999969,27.051262 60.960178,19.561262 61.014637,12.071948 
	C61.048244,7.450649 58.275455,4.535303 54.470932,3.330802 
	C50.919830,2.206535 46.919628,2.229864 44.300385,6.159534 
	C42.497555,8.864325 40.290886,11.306475 38.577003,14.060366 
	C38.001713,14.984747 38.211487,17.575794 38.364029,17.601303 
	C41.487465,18.123562 44.654640,18.384216 47.813103,18.696983 
	C47.701221,16.505402 48.453911,13.493079 47.306568,12.284468 
	C44.477665,9.304500 46.968998,8.068803 48.584362,6.995652 
	C52.170147,4.613465 57.772064,7.527688 57.925575,11.963596 
	C58.188225,19.553434 57.998066,27.158943 57.998066,35.683300 
	C46.277046,32.390419 33.942989,39.777370 23.577801,30.962595 
	C17.735296,25.994007 12.215054,30.468309 6.676996,31.289322 
	C4.597581,31.597595 2.881647,34.357704 1.000000,36.000000 
z"/>
<path fill="#000000" opacity="1.000000" stroke="none" 
	d="
M1.000000,36.416664 
	C2.881647,34.357704 4.597581,31.597595 6.676996,31.289322 
	C12.215054,30.468309 17.735296,25.994007 23.577801,30.962595 
	C33.942989,39.777370 46.277046,32.390419 57.998066,35.683300 
	C57.998066,27.158943 58.188225,19.553434 57.925575,11.963596 
	C57.772064,7.527688 52.170147,4.613465 48.584362,6.995652 
	C46.968998,8.068803 44.477665,9.304500 47.306568,12.284468 
	C48.453911,13.493079 47.701221,16.505402 47.813103,18.696983 
	C44.654640,18.384216 41.487465,18.123562 38.364029,17.601303 
	C38.211487,17.575794 38.001713,14.984747 38.577003,14.060366 
	C40.290886,11.306475 42.497555,8.864325 44.300385,6.159534 
	C46.919628,2.229864 50.919830,2.206535 54.470932,3.330802 
	C58.275455,4.535303 61.048244,7.450649 61.014637,12.071948 
	C60.960178,19.561262 60.999969,27.051262 60.999969,34.465702 
	C62.186157,34.941559 63.201836,35.349014 64.608757,35.878235 
	C65.000000,37.388889 65.000000,38.777779 64.628799,40.686707 
	C61.881779,42.212688 60.404022,43.463974 59.795719,46.481861 
	C59.038170,50.240154 57.006481,53.808475 55.141552,57.251114 
	C54.059135,59.249245 52.224262,60.839756 50.882080,62.431015 
	C49.156990,61.413509 47.160793,59.278557 45.056358,59.165920 
	C37.271702,58.749249 29.450417,58.942696 21.645317,59.063416 
	C20.495729,59.081196 19.236963,59.771240 18.253740,60.467857 
	C17.404665,61.069435 16.875805,62.122971 16.205385,62.976707 
	C15.798241,62.073799 15.442562,61.142338 14.963694,60.279224 
	C14.697603,59.799622 14.301624,59.208019 13.835346,59.052036 
	C9.203874,57.502682 7.826244,53.823029 6.906861,49.472977 
	C6.168071,45.977390 6.070101,41.640053 1.000000,41.000000 
	C1.000000,39.611111 1.000000,38.222221 1.000000,36.416664 
M34.499954,42.000000 
	C26.037016,42.000000 17.574080,42.000000 8.472863,42.000000 
	C9.363331,45.164539 10.277559,47.734337 10.788306,50.381969 
	C11.631529,54.753094 14.215317,56.142303 18.479250,56.060932 
	C28.466438,55.870342 38.462563,56.124699 48.448261,55.898438 
	C50.532829,55.851208 53.764172,55.059181 54.423950,53.652267 
	C56.042656,50.200523 56.469772,46.189976 57.473080,42.000000 
	C49.455883,42.000000 42.477879,42.000000 34.499954,42.000000 
M40.499828,38.000000 
	C28.541811,38.000000 16.583792,38.000000 4.625774,38.000000 
	C4.630017,38.228348 4.634259,38.456699 4.638502,38.685047 
	C23.547895,38.685047 42.457287,38.685047 61.366680,38.685047 
	C61.367985,38.456699 61.369289,38.228348 61.370594,38.000000 
	C54.746960,38.000000 48.123325,38.000000 40.499828,38.000000 
z"/>
<path fill="#FFFFFF" opacity="1.000000" stroke="none" 
	d="
M1.000000,41.468693 
	C6.070101,41.640053 6.168071,45.977390 6.906861,49.472977 
	C7.826244,53.823029 9.203874,57.502682 13.835346,59.052036 
	C14.301624,59.208019 14.697603,59.799622 14.963694,60.279224 
	C15.442562,61.142338 15.798241,62.073799 16.205385,62.976707 
	C16.875805,62.122971 17.404665,61.069435 18.253740,60.467857 
	C19.236963,59.771240 20.495729,59.081196 21.645317,59.063416 
	C29.450417,58.942696 37.271702,58.749249 45.056358,59.165920 
	C47.160793,59.278557 49.156990,61.413509 50.882080,62.431015 
	C52.224262,60.839756 54.059135,59.249245 55.141552,57.251114 
	C57.006481,53.808475 59.038170,50.240154 59.795719,46.481861 
	C60.404022,43.463974 61.881779,42.212688 64.628799,41.103374 
	C65.000000,48.968616 65.000000,56.937237 65.000000,64.952927 
	C43.781815,64.952927 22.563509,64.952927 1.000000,64.952927 
	C1.000000,57.315907 1.000000,49.626644 1.000000,41.468693 
z"/>
<path fill="#FFFFFF" opacity="1.000000" stroke="none" 
	d="
M34.999916,42.000000 
	C42.477879,42.000000 49.455883,42.000000 57.473080,42.000000 
	C56.469772,46.189976 56.042656,50.200523 54.423950,53.652267 
	C53.764172,55.059181 50.532829,55.851208 48.448261,55.898438 
	C38.462563,56.124699 28.466438,55.870342 18.479250,56.060932 
	C14.215317,56.142303 11.631529,54.753094 10.788306,50.381969 
	C10.277559,47.734337 9.363331,45.164539 8.472863,42.000000 
	C17.574080,42.000000 26.037016,42.000000 34.999916,42.000000 
z"/>
<path fill="#FFFFFF" opacity="1.000000" stroke="none" 
	d="
M40.999760,38.000000 
	C48.123325,38.000000 54.746960,38.000000 61.370594,38.000000 
	C61.369289,38.228348 61.367985,38.456699 61.366680,38.685047 
	C42.457287,38.685047 23.547895,38.685047 4.638502,38.685047 
	C4.634259,38.456699 4.630017,38.228348 4.625774,38.000000 
	C16.583792,38.000000 28.541811,38.000000 40.999760,38.000000 
z"/>
</svg>