<?xml version="1.0" standalone="no"?>
<!DOCTYPE svg PUBLIC "-//W3C//DTD SVG 20010904//EN"
 "http://www.w3.org/TR/2001/REC-SVG-20010904/DTD/svg10.dtd">
<svg version="1.0" xmlns="http://www.w3.org/2000/svg"
 width="225.000000pt" height="225.000000pt" viewBox="0 0 225.000000 225.000000"
 preserveAspectRatio="xMidYMid meet">

<g transform="translate(0.000000,225.000000) scale(0.100000,-0.100000)"
fill="#000000" stroke="none">
<path d="M665 1890 c-288 -51 -445 -305 -380 -614 38 -181 136 -311 425 -566
142 -125 233 -215 322 -318 112 -130 144 -133 228 -25 81 102 187 209 383 386
264 238 356 365 391 539 27 132 14 243 -40 350 -32 63 -114 151 -172 185 -148
87 -357 87 -506 -1 -41 -24 -137 -118 -149 -146 -5 -12 -10 -10 -24 10 -90
125 -207 190 -363 203 -36 3 -87 2 -115 -3z m173 -70 c120 -28 228 -118 286
-239 l33 -70 37 75 c119 239 397 315 614 167 155 -106 214 -328 138 -526 -51
-136 -123 -221 -390 -461 -169 -153 -256 -241 -350 -358 -40 -50 -59 -58 -73
-34 -28 49 -184 211 -338 351 -293 265 -375 360 -427 501 -18 49 -22 81 -23
184 0 115 2 130 27 182 81 172 281 270 466 228z"/>
</g>
</svg>
